<svg width="331" height="104" viewBox="0 0 331 104" fill="none" xmlns="http://www.w3.org/2000/svg">
<g clip-path="url(#clip0_26_3)">
<path d="M84.824 81.032C83.032 81.032 81.24 80.616 79.448 79.784C77.72 78.952 76.088 77.736 74.552 76.136C72.312 73.832 70.36 71.08 68.696 67.88C67.096 64.616 65.72 61.288 64.568 57.896C63.416 54.44 62.52 51.304 61.88 48.488C61.24 45.608 60.792 43.4 60.536 41.864C58.168 46.408 55.704 50.92 53.144 55.4C50.648 59.816 47.448 64.168 43.544 68.456C39.832 72.488 35.768 75.528 31.352 77.576C26.936 79.688 22.36 80.744 17.624 80.744C16.152 80.744 14.648 80.648 13.112 80.456C8.888 79.944 5.784 78.728 3.8 76.808C1.816 74.888 0.824 72.84 0.824 70.664C0.824 68.296 1.88 66.152 3.992 64.232C6.104 62.312 9.112 61.352 13.016 61.352C14.296 61.352 15.672 61.48 17.144 61.736C18.616 61.992 20.152 62.408 21.752 62.984C22.456 63.24 22.808 63.528 22.808 63.848C22.808 64.104 22.552 64.232 22.04 64.232C21.72 64.232 21.464 64.2 21.272 64.136C19.16 63.368 17.272 62.984 15.608 62.984C12.92 62.984 10.872 63.784 9.464 65.384C8.056 66.92 7.352 68.616 7.352 70.472C7.352 72.264 8.12 73.928 9.656 75.464C11.192 77 13.56 77.768 16.76 77.768C20.792 77.768 24.504 76.84 27.896 74.984C31.288 73.064 34.456 70.472 37.4 67.208C40.344 63.88 43.16 60.136 45.848 55.976C48.536 51.752 51.16 47.368 53.72 42.824C58.008 35.208 61.88 28.296 65.336 22.088C68.856 15.816 72.568 10.504 76.472 6.152C74.744 5.96 72.984 5.832 71.192 5.768C69.4 5.704 67.576 5.672 65.72 5.672C61.688 5.672 57.496 5.896 53.144 6.34399C48.856 6.728 44.696 7.368 40.664 8.264C35.224 9.416 30.552 11.144 26.648 13.448C22.744 15.688 19.64 18.216 17.336 21.032C15.096 23.784 13.688 26.568 13.112 29.384C12.92 30.408 12.824 31.4 12.824 32.36C12.824 35.624 13.912 38.152 16.088 39.944C18.264 41.736 20.76 42.632 23.576 42.632C25.368 42.632 27.16 42.28 28.952 41.576C30.808 40.808 32.472 39.624 33.944 38.024C35.16 36.744 36.056 35.56 36.632 34.472C37.208 33.32 37.528 32.456 37.592 31.88C37.656 30.984 37.848 30.536 38.168 30.536C38.36 30.536 38.52 30.696 38.648 31.016C38.84 31.336 38.904 31.656 38.84 31.976C38.584 33.448 38.136 34.888 37.496 36.296C36.856 37.704 36.088 38.888 35.192 39.848C33.4 41.704 31.352 43.08 29.048 43.976C26.744 44.872 24.536 45.32 22.424 45.32C19.928 45.32 17.56 44.776 15.32 43.688C13.144 42.6 11.384 41.032 10.04 38.984C8.696 36.872 8.024 34.28 8.024 31.208C8.024 27.624 9.272 23.976 11.768 20.264C14.264 16.488 18.008 13.16 23 10.28C28.056 7.4 34.328 5.416 41.816 4.328C45.592 3.816 49.24 3.432 52.76 3.17599C56.344 2.856 59.8 2.696 63.128 2.696C65.816 2.696 68.44 2.792 71 2.984C73.56 3.176 76.088 3.432 78.584 3.752C80.248 2.024 81.368 1.16 81.944 1.16C82.392 1.16 82.616 1.512 82.616 2.216C82.616 2.472 82.584 2.792 82.52 3.17599C82.456 3.56 82.36 3.944 82.232 4.328C83.96 4.584 85.624 4.872 87.224 5.192C88.888 5.448 90.36 5.768 91.64 6.152C96.696 7.56 100.376 9.416 102.68 11.72C105.048 13.96 106.232 16.392 106.232 19.016C106.232 21.832 104.952 24.648 102.392 27.464C99.896 30.28 96.344 32.776 91.736 34.952C87.192 37.128 81.848 38.728 75.704 39.752C73.72 40.072 71.96 40.296 70.424 40.424C68.952 40.552 67.672 40.648 66.584 40.712C66.712 41.352 67 42.696 67.448 44.744C67.896 46.792 68.536 49.224 69.368 52.04C70.2 54.792 71.256 57.704 72.536 60.776C73.88 63.848 75.48 66.76 77.336 69.512C78.808 71.688 80.312 73.48 81.848 74.888C83.384 76.296 85.016 77 86.744 77C87.832 77 88.952 76.712 90.104 76.136C91.32 75.56 92.568 74.632 93.848 73.352C95.384 71.816 96.76 70.088 97.976 68.168C99.256 66.184 100.344 64.328 101.24 62.6C102.136 60.872 102.744 59.656 103.064 58.952C103.576 58.056 104.12 57.608 104.696 57.608C104.888 57.608 104.984 57.736 104.984 57.992C104.984 58.12 104.888 58.44 104.696 58.952C104.376 59.656 103.896 60.744 103.256 62.216C102.616 63.624 101.848 65.192 100.952 66.92C100.056 68.648 99.096 70.344 98.072 72.008C97.048 73.672 96.024 75.08 95 76.232C93.528 77.832 91.864 79.016 90.008 79.784C88.216 80.616 86.488 81.032 84.824 81.032ZM62.552 38.12C64.408 37.8 66.392 37.576 68.504 37.448C70.616 37.32 72.696 37.128 74.744 36.872C78.072 36.424 81.208 35.56 84.152 34.28C87.096 32.936 89.688 31.336 91.928 29.48C94.232 27.624 96.024 25.672 97.304 23.624C98.584 21.512 99.224 19.496 99.224 17.576C99.224 13.224 96.312 10.216 90.488 8.55199C89.336 8.23199 87.832 7.91199 85.976 7.592C84.184 7.272 82.552 6.984 81.08 6.72799C78.008 11.976 74.84 17.128 71.576 22.184C68.376 27.24 65.368 32.552 62.552 38.12ZM110.005 77.384C107.637 77.384 105.493 76.616 103.573 75.08C101.717 73.544 100.789 71.208 100.789 68.072C100.789 65.192 101.493 62.12 102.901 58.856C104.309 55.528 106.101 52.616 108.277 50.12C110.133 47.944 112.213 46.152 114.517 44.744C116.821 43.336 118.997 42.632 121.045 42.632C122.453 42.632 123.668 43.016 124.693 43.784C125.781 44.616 126.325 45.8 126.325 47.336C126.325 48.936 125.717 50.696 124.501 52.616C123.285 54.536 121.557 56.328 119.317 57.992C118.357 58.696 117.141 59.368 115.669 60.008C114.197 60.648 112.725 61.192 111.253 61.64C109.781 62.024 108.565 62.216 107.605 62.216C107.285 62.984 106.965 64.008 106.645 65.288C106.389 66.568 106.261 67.88 106.261 69.224C106.261 70.824 106.581 72.264 107.221 73.544C107.861 74.824 109.045 75.464 110.773 75.464C112.885 75.464 114.805 74.856 116.533 73.64C118.261 72.424 119.797 70.92 121.141 69.128C122.485 67.272 123.605 65.416 124.501 63.56C125.461 61.704 126.229 60.136 126.805 58.856C127.189 57.96 127.701 57.512 128.341 57.512C128.661 57.512 128.821 57.672 128.821 57.992C128.821 58.248 128.725 58.568 128.533 58.952C127.637 60.872 126.677 62.92 125.653 65.096C124.629 67.208 123.413 69.224 122.005 71.144C120.597 73 118.901 74.504 116.917 75.656C114.997 76.808 112.693 77.384 110.005 77.384ZM108.277 60.488C109.173 60.488 110.677 60.168 112.789 59.528C114.901 58.824 116.821 57.736 118.549 56.264C120.213 54.792 121.493 53.192 122.389 51.464C123.285 49.672 123.733 48.168 123.733 46.952C123.733 45.544 123.221 44.84 122.197 44.84C121.429 44.84 120.373 45.352 119.029 46.376C117.685 47.4 116.021 49.128 114.037 51.56C112.821 53.096 111.669 54.76 110.581 56.552C109.493 58.344 108.725 59.656 108.277 60.488ZM134.969 77.384C131.321 77.384 128.761 76.52 127.289 74.792C125.817 73 125.081 70.824 125.081 68.264C125.081 65.448 125.721 62.44 127.001 59.24C128.345 56.04 129.913 53.256 131.705 50.888C133.561 48.392 135.609 46.472 137.849 45.128C140.089 43.72 142.361 43.016 144.665 43.016C147.097 43.016 148.889 43.624 150.041 44.84C151.193 46.056 151.641 47.688 151.385 49.736C151.257 51.016 150.649 52.296 149.561 53.576C148.473 54.792 147.385 55.4 146.297 55.4C145.785 55.4 145.337 55.208 144.953 54.824C145.465 54.184 146.009 53.416 146.585 52.52C147.161 51.624 147.577 50.76 147.833 49.928C148.089 49.16 148.217 48.392 148.217 47.624C148.217 46.024 147.449 45.224 145.913 45.224C144.185 45.224 142.361 46.12 140.441 47.912C138.585 49.64 136.953 51.528 135.545 53.576C134.969 54.344 134.265 55.56 133.433 57.224C132.665 58.824 131.961 60.616 131.321 62.6C130.681 64.52 130.361 66.408 130.361 68.264C130.361 70.184 130.777 71.912 131.609 73.448C132.505 74.92 133.977 75.656 136.025 75.656C138.841 75.656 141.241 74.792 143.225 73.064C145.273 71.272 147.065 69.064 148.601 66.44C150.201 63.816 151.641 61.256 152.921 58.76C153.305 57.992 153.689 57.608 154.073 57.608C154.393 57.608 154.553 57.864 154.553 58.376C154.553 58.632 154.457 58.952 154.265 59.336C152.729 62.664 151.161 65.704 149.561 68.456C147.961 71.208 146.009 73.384 143.705 74.984C141.465 76.584 138.553 77.384 134.969 77.384ZM162.784 38.024C161.824 38.024 161.024 37.704 160.384 37.064C159.808 36.36 159.52 35.528 159.52 34.568C159.52 33.352 160 32.296 160.96 31.4C161.92 30.504 162.976 30.056 164.128 30.056C165.152 30.056 165.984 30.376 166.624 31.016C167.264 31.656 167.584 32.424 167.584 33.32C167.584 34.536 167.104 35.624 166.144 36.584C165.184 37.544 164.064 38.024 162.784 38.024ZM155.008 77C152.64 77 150.976 76.328 150.016 74.984C149.056 73.576 148.576 71.976 148.576 70.184C148.576 69.224 148.672 68.264 148.864 67.304C149.12 66.28 149.408 65.352 149.728 64.52L156.16 48.104C156.352 47.592 156.448 47.144 156.448 46.76C156.448 46.12 156.288 45.576 155.968 45.128C155.648 44.616 155.424 44.264 155.296 44.072L160.576 43.88C161.536 43.816 162.208 43.944 162.592 44.264C163.04 44.52 163.264 44.84 163.264 45.224C163.264 45.608 163.04 46.312 162.592 47.336L154.624 66.056C154.624 66.056 154.432 66.472 154.048 67.304C153.728 68.072 153.536 68.584 153.472 68.84C153.28 69.8 153.152 70.408 153.088 70.664C153.024 70.92 152.992 71.08 152.992 71.144C152.992 71.208 152.992 71.464 152.992 71.912C152.992 72.744 153.184 73.448 153.568 74.024C154.016 74.6 154.752 74.888 155.776 74.888C156.416 74.888 157.152 74.696 157.984 74.312C158.816 73.928 159.424 73.544 159.808 73.16C161.408 71.496 162.976 69.32 164.512 66.632C166.112 63.88 167.584 61.16 168.928 58.472C169.184 57.832 169.504 57.512 169.888 57.512C170.208 57.512 170.368 57.736 170.368 58.184C170.368 58.44 170.272 58.824 170.08 59.336C169.44 60.68 168.64 62.344 167.68 64.328C166.72 66.312 165.568 68.296 164.224 70.28C162.944 72.2 161.536 73.8 160 75.08C158.464 76.36 156.8 77 155.008 77ZM154.315 103.208C153.547 103.208 152.779 103.08 152.011 102.824C151.179 102.632 150.347 102.6 149.515 102.728C149.899 102.344 150.635 101.224 151.723 99.368C152.811 97.576 154.091 95.336 155.563 92.648C156.971 89.96 158.475 87.048 160.075 83.912C161.675 80.776 163.179 77.704 164.587 74.696C165.995 71.624 167.179 68.84 168.139 66.344C169.163 63.784 169.803 61.768 170.059 60.296C169.483 61.128 168.907 61.608 168.331 61.736C167.819 61.8 167.691 61.608 167.947 61.16C168.075 60.904 168.331 60.296 168.715 59.336C169.163 58.312 169.547 57.448 169.867 56.744C170.379 55.464 170.795 54.056 171.115 52.52C171.499 50.984 171.691 49.512 171.691 48.104C171.691 47.208 171.595 46.44 171.403 45.8C171.211 45.16 170.859 44.808 170.347 44.744C170.347 44.744 170.699 44.68 171.403 44.552C172.107 44.424 172.843 44.296 173.611 44.168C174.379 44.04 174.891 43.976 175.147 43.976C175.531 43.912 175.883 43.88 176.203 43.88C176.523 43.816 176.811 43.784 177.067 43.784C177.643 43.784 178.027 44.008 178.219 44.456C178.475 44.84 178.603 45.672 178.603 46.952C178.603 48.552 178.315 50.6 177.739 53.096C177.227 55.528 176.619 57.672 175.915 59.528C176.619 58.376 177.515 56.904 178.603 55.112C179.755 53.32 181.067 51.496 182.539 49.64C184.011 47.784 185.547 46.248 187.147 45.032C188.747 43.752 190.315 43.112 191.851 43.112C192.171 43.112 192.587 43.176 193.099 43.304C194.891 43.752 196.139 44.648 196.843 45.992C197.611 47.272 197.995 48.808 197.995 50.6C197.995 52.52 197.611 54.632 196.843 56.936C196.139 59.24 195.179 61.512 193.963 63.752C192.747 65.928 191.403 67.912 189.931 69.704C188.139 71.944 185.995 73.736 183.499 75.08C181.003 76.424 178.443 77.096 175.819 77.096C173.451 77.096 171.243 76.488 169.195 75.272L160.075 98.216C159.179 100.136 158.315 101.448 157.483 102.152C156.651 102.856 155.595 103.208 154.315 103.208ZM172.747 75.08C174.539 75.08 176.555 74.248 178.795 72.584C181.035 70.92 183.179 68.808 185.227 66.248C187.339 63.624 189.099 61 190.507 58.376C191.467 56.584 192.171 54.952 192.619 53.48C193.067 51.944 193.291 50.632 193.291 49.544C193.291 47.048 192.395 45.8 190.603 45.8C189.771 45.8 188.683 46.248 187.339 47.144C186.059 48.04 184.555 49.672 182.827 52.04C180.971 54.6 178.923 57.832 176.683 61.736C174.507 65.576 172.267 69.64 169.963 73.928C170.731 74.696 171.659 75.08 172.747 75.08ZM206.049 77C204.257 77 202.657 76.392 201.249 75.176C199.841 73.896 199.137 71.912 199.137 69.224C199.137 67.112 199.521 64.52 200.289 61.448C201.121 58.312 202.113 55.08 203.265 51.752C204.481 48.36 205.665 45.288 206.817 42.536H201.729C201.281 42.536 201.057 42.216 201.057 41.576C201.057 41.256 201.121 40.968 201.249 40.712C201.441 40.456 201.697 40.328 202.017 40.328H207.777C208.865 37.896 210.017 35.528 211.233 33.224C212.449 30.92 213.633 28.744 214.785 26.696C216.257 24.136 217.825 22.216 219.489 20.936C221.153 19.656 222.593 19.016 223.809 19.016C224.769 19.016 225.569 19.4 226.209 20.168C226.849 20.872 227.169 21.96 227.169 23.432C227.169 24.328 226.977 25.576 226.593 27.176C226.209 28.712 225.601 30.344 224.769 32.072C224.321 32.968 223.681 34.248 222.849 35.912C222.081 37.576 221.313 39.048 220.545 40.328H225.153C225.601 40.328 225.825 40.648 225.825 41.288C225.825 41.544 225.761 41.832 225.633 42.152C225.505 42.408 225.313 42.536 225.057 42.536H219.393C217.793 45.288 215.969 47.976 213.921 50.6C211.873 53.224 209.441 55.848 206.625 58.472C206.433 59.048 206.177 59.88 205.857 60.968C205.601 62.056 205.345 63.176 205.089 64.328C204.897 65.416 204.705 66.344 204.513 67.112C204.385 67.88 204.321 68.264 204.321 68.264C204.129 69.096 204.033 69.864 204.033 70.568C204.033 71.912 204.353 72.904 204.993 73.544C205.633 74.12 206.369 74.408 207.201 74.408C207.713 74.408 208.225 74.344 208.737 74.216C209.249 74.024 209.825 73.704 210.465 73.256C212.705 71.656 214.657 69.48 216.321 66.728C218.049 63.976 219.553 61.32 220.833 58.76C221.217 57.992 221.601 57.608 221.985 57.608C222.241 57.608 222.369 57.8 222.369 58.184C222.369 58.376 222.273 58.728 222.081 59.24C220.673 62.184 219.489 64.552 218.529 66.344C217.569 68.136 216.641 69.64 215.745 70.856C214.849 72.008 213.793 73.16 212.577 74.312C211.681 75.208 210.657 75.88 209.505 76.328C208.353 76.776 207.201 77 206.049 77ZM213.633 40.328H218.529C219.425 38.664 220.257 37.032 221.025 35.432C221.857 33.832 222.593 32.232 223.233 30.632C223.681 29.608 224.065 28.456 224.385 27.176C224.705 25.896 224.865 24.904 224.865 24.2C224.865 23.24 224.641 22.76 224.193 22.76C223.873 22.76 223.393 23.048 222.753 23.624C222.177 24.136 221.441 25.032 220.545 26.312C219.393 27.912 218.241 29.992 217.089 32.552C216.001 35.048 214.849 37.64 213.633 40.328ZM207.393 55.4C209.249 53.48 210.977 51.432 212.577 49.256C214.241 47.08 215.777 44.84 217.185 42.536H212.673C211.649 44.904 210.689 47.208 209.793 49.448C208.897 51.688 208.097 53.672 207.393 55.4ZM225.265 77C222.833 77 221.041 76.2 219.889 74.6C218.737 72.936 218.161 70.92 218.161 68.552C218.161 65.672 218.833 62.664 220.177 59.528C221.457 56.584 223.089 53.896 225.073 51.464C227.057 49.032 229.201 47.08 231.505 45.608C233.809 44.072 236.049 43.304 238.225 43.304C240.657 43.304 242.449 44.104 243.601 45.704C244.753 47.304 245.329 49.32 245.329 51.752C245.329 54.696 244.657 57.704 243.313 60.776C242.545 62.504 241.457 64.424 240.049 66.536C238.641 68.584 237.041 70.472 235.249 72.2C235.633 72.904 236.177 73.512 236.881 74.024C237.585 74.472 238.545 74.696 239.761 74.696C241.297 74.696 242.737 74.056 244.081 72.776C245.489 71.496 246.769 69.96 247.921 68.168C249.073 66.312 250.097 64.456 250.993 62.6C251.889 60.744 252.625 59.24 253.201 58.088C253.393 57.704 253.713 57.512 254.161 57.512C254.417 57.512 254.609 57.64 254.737 57.896C254.865 58.088 254.833 58.408 254.641 58.856C254.257 59.816 253.617 61.256 252.721 63.176C251.825 65.032 250.737 66.984 249.457 69.032C248.177 71.016 246.705 72.712 245.041 74.12C243.377 75.528 241.521 76.232 239.473 76.232C238.065 76.232 236.849 76.008 235.825 75.56C234.801 75.048 233.969 74.44 233.329 73.736C231.985 74.76 230.641 75.56 229.297 76.136C227.953 76.712 226.609 77 225.265 77ZM226.705 74.888C228.433 74.888 230.289 74.056 232.273 72.392C231.761 71.624 231.377 70.824 231.121 69.992C230.865 69.16 230.737 68.392 230.737 67.688C230.737 66.536 230.993 65.544 231.505 64.712C232.081 63.88 232.945 63.464 234.097 63.464C234.929 63.464 235.601 63.784 236.113 64.424C236.689 65 236.977 65.672 236.977 66.44C236.977 66.632 236.945 66.824 236.881 67.016C236.881 67.144 236.849 67.304 236.785 67.496C237.873 66.024 238.897 64.296 239.857 62.312C241.969 57.768 243.025 54.024 243.025 51.08C243.025 49.608 242.737 48.456 242.161 47.624C241.585 46.792 240.721 46.376 239.569 46.376C238.225 46.376 236.753 46.952 235.153 48.104C233.617 49.256 232.113 50.792 230.641 52.712C229.233 54.632 227.985 56.776 226.897 59.144C225.873 61.32 225.041 63.432 224.401 65.48C223.825 67.464 223.537 69.192 223.537 70.664C223.537 71.944 223.793 72.968 224.305 73.736C224.817 74.504 225.617 74.888 226.705 74.888ZM264.238 77.096C263.022 77.096 261.806 76.616 260.59 75.656C259.374 74.632 258.766 73 258.766 70.76C258.766 69.032 259.182 67.048 260.014 64.808C260.782 62.632 261.806 60.52 263.086 58.472C264.43 56.424 265.39 54.76 265.966 53.48C266.158 52.968 266.254 52.52 266.254 52.136C266.254 50.984 265.518 50.152 264.046 49.64C262.638 49.128 260.782 48.84 258.478 48.776L257.326 51.944C256.622 53.992 255.63 56.392 254.35 59.144C253.134 61.896 251.758 64.552 250.222 67.112C248.75 69.672 247.213 71.72 245.613 73.256C245.485 73.384 245.325 73.448 245.133 73.448C244.877 73.448 244.717 73.288 244.653 72.968C244.525 72.648 244.653 72.264 245.037 71.816C247.534 68.488 249.774 64.808 251.758 60.776C253.742 56.68 255.406 52.52 256.75 48.296C258.158 44.072 259.182 40.168 259.822 36.584C260.014 35.56 260.365 34.824 260.878 34.376C261.39 33.864 261.934 33.608 262.51 33.608C263.342 33.608 264.11 34.024 264.814 34.856C265.518 35.624 265.87 36.744 265.87 38.216C265.87 38.472 265.838 38.76 265.774 39.08C265.774 39.4 265.742 39.72 265.678 40.04C265.422 41.384 264.654 42.664 263.374 43.88C262.158 45.032 261.166 45.896 260.398 46.472C261.038 46.536 261.71 46.6 262.414 46.664C263.118 46.664 263.886 46.664 264.718 46.664C267.726 46.664 270.702 46.472 273.646 46.088C273.774 46.472 273.838 46.76 273.838 46.952C273.838 47.784 273.582 48.84 273.07 50.12C272.622 51.4 272.142 52.552 271.63 53.576C271.374 54.152 270.862 55.208 270.094 56.744C269.326 58.216 268.494 59.912 267.598 61.832C266.702 63.688 265.934 65.544 265.294 67.4C264.718 69.192 264.43 70.728 264.43 72.008C264.43 73.672 265.07 74.504 266.35 74.504C267.31 74.504 268.366 73.896 269.518 72.68C270.67 71.4 271.79 69.864 272.878 68.072C274.03 66.216 275.054 64.424 275.95 62.696C276.91 60.904 277.646 59.496 278.158 58.472C278.414 57.832 278.766 57.512 279.214 57.512C279.47 57.512 279.598 57.736 279.598 58.184C279.598 58.44 279.502 58.824 279.31 59.336C278.606 60.808 277.774 62.472 276.814 64.328C275.854 66.184 274.766 68.008 273.55 69.8C272.398 71.592 271.118 73.16 269.71 74.504C268.366 75.784 266.894 76.616 265.294 77C265.102 77.064 264.75 77.096 264.238 77.096ZM288.597 38.024C287.637 38.024 286.837 37.704 286.197 37.064C285.621 36.36 285.333 35.528 285.333 34.568C285.333 33.352 285.813 32.296 286.773 31.4C287.733 30.504 288.789 30.056 289.941 30.056C290.965 30.056 291.797 30.376 292.437 31.016C293.077 31.656 293.397 32.424 293.397 33.32C293.397 34.536 292.917 35.624 291.957 36.584C290.997 37.544 289.877 38.024 288.597 38.024ZM280.821 77C278.453 77 276.789 76.328 275.829 74.984C274.869 73.576 274.389 71.976 274.389 70.184C274.389 69.224 274.485 68.264 274.677 67.304C274.933 66.28 275.221 65.352 275.541 64.52L281.973 48.104C282.165 47.592 282.261 47.144 282.261 46.76C282.261 46.12 282.101 45.576 281.781 45.128C281.461 44.616 281.237 44.264 281.109 44.072L286.389 43.88C287.349 43.816 288.021 43.944 288.405 44.264C288.853 44.52 289.077 44.84 289.077 45.224C289.077 45.608 288.853 46.312 288.405 47.336L280.437 66.056C280.437 66.056 280.245 66.472 279.861 67.304C279.541 68.072 279.349 68.584 279.285 68.84C279.093 69.8 278.965 70.408 278.901 70.664C278.837 70.92 278.805 71.08 278.805 71.144C278.805 71.208 278.805 71.464 278.805 71.912C278.805 72.744 278.997 73.448 279.381 74.024C279.829 74.6 280.565 74.888 281.589 74.888C282.229 74.888 282.965 74.696 283.797 74.312C284.629 73.928 285.237 73.544 285.621 73.16C287.221 71.496 288.789 69.32 290.325 66.632C291.925 63.88 293.397 61.16 294.741 58.472C294.997 57.832 295.317 57.512 295.701 57.512C296.021 57.512 296.181 57.736 296.181 58.184C296.181 58.44 296.085 58.824 295.893 59.336C295.253 60.68 294.453 62.344 293.493 64.328C292.533 66.312 291.381 68.296 290.037 70.28C288.757 72.2 287.349 73.8 285.813 75.08C284.277 76.36 282.613 77 280.821 77ZM315.456 77.288C314.752 77.352 313.952 77.192 313.056 76.808C312.16 76.424 311.36 75.72 310.656 74.696C310.016 73.672 309.696 72.232 309.696 70.376C309.696 68.84 309.984 66.984 310.56 64.808C309.792 66.024 308.8 67.528 307.584 69.32C306.368 71.048 305.056 72.584 303.648 73.928C302.432 75.08 301.28 75.912 300.192 76.424C299.104 76.936 298.112 77.192 297.216 77.192C295.552 77.192 294.208 76.456 293.184 74.984C292.16 73.448 291.648 71.464 291.648 69.032C291.648 66.472 292.288 63.56 293.568 60.296C294.848 57.032 296.928 53.64 299.808 50.12C301.664 47.88 303.904 46.088 306.528 44.744C309.216 43.336 311.84 42.632 314.4 42.632C315.872 42.632 317.28 42.888 318.624 43.4C319.968 43.848 321.152 44.616 322.176 45.704C322.624 46.152 322.848 46.664 322.848 47.24C322.848 47.624 322.688 47.944 322.368 48.2C322.048 48.456 321.632 48.52 321.12 48.392C320.416 46.152 318.912 45.032 316.608 45.032C315.52 45.032 314.272 45.384 312.864 46.088C310.688 47.24 308.416 49.128 306.048 51.752C303.744 54.376 301.728 57.096 300 59.912C299.744 60.296 299.328 61.032 298.752 62.12C298.24 63.208 297.728 64.424 297.216 65.768C296.704 67.112 296.352 68.424 296.16 69.704C296.096 70.088 296.064 70.376 296.064 70.568C296.064 70.696 296.064 70.92 296.064 71.24C296.064 73.352 296.864 74.408 298.464 74.408C300.384 74.408 302.56 73 304.992 70.184C306.656 68.136 308.16 65.992 309.504 63.752C310.848 61.512 312.224 59.112 313.632 56.552C314.592 54.824 315.488 53.384 316.32 52.232C317.152 51.08 318.336 50.504 319.872 50.504C320.576 50.504 321.28 50.6 321.984 50.792C322.688 50.984 323.424 51.016 324.192 50.888C323.68 51.4 322.976 52.36 322.08 53.768C321.248 55.176 320.352 56.776 319.392 58.568C318.432 60.36 317.568 62.184 316.8 64.04C316.032 65.896 315.488 67.496 315.168 68.84C315.104 69.224 315.008 69.768 314.88 70.472C314.816 71.176 314.784 71.688 314.784 72.008C314.784 73.8 315.296 74.696 316.32 74.696C317.344 74.696 318.432 74.088 319.584 72.872C320.8 71.656 321.984 70.152 323.136 68.36C324.288 66.568 325.344 64.776 326.304 62.984C327.264 61.128 328.032 59.624 328.608 58.472C328.864 57.832 329.248 57.512 329.76 57.512C330.08 57.512 330.24 57.736 330.24 58.184C330.24 58.376 330.144 58.728 329.952 59.24C329.184 60.84 328.256 62.664 327.168 64.712C326.08 66.696 324.896 68.648 323.616 70.568C322.336 72.424 320.992 73.992 319.584 75.272C318.24 76.488 316.864 77.16 315.456 77.288Z" fill="#131313"/>
</g>
<defs>
<clipPath id="clip0_26_3">
<rect width="331" height="104" fill="white"/>
</clipPath>
</defs>
</svg>
